<svg width="128" height="46" viewBox="0 0 128 46" fill="none" xmlns="http://www.w3.org/2000/svg">
<path d="M50.2586 33.3357C49.5644 33.3478 48.7955 33.2847 48.0906 33.2653C46.9871 33.2459 45.8823 33.2447 44.7788 33.2629C44.7906 32.6925 44.7835 32.1234 44.7599 31.5531L43.3523 31.5446L43.3488 30.0605C42.6758 29.9756 42.3777 29.9804 41.7012 30.0278L41.6941 28.3859L40.0405 28.3883L40.0346 26.3667C39.5059 26.3922 38.9299 26.3898 38.3976 26.3983L38.4024 28.3883L36.6814 28.3859C36.6826 28.9089 36.7133 29.4416 36.7358 29.9647C36.064 29.9671 35.5743 29.9877 34.9049 30.0447L34.9084 31.5434L33.4347 31.5592L33.4287 33.3005C31.4831 33.2738 29.9987 33.218 28.0423 33.326C27.9347 28.5012 28.0672 23.6194 28.0187 18.791C27.9997 16.8252 27.9832 14.7926 28.0258 12.8328C29.5894 12.8377 31.1542 12.834 32.7191 12.8207L32.7191 20.7131L32.7238 26.2235C33.4406 26.2502 34.0119 26.2429 34.7274 26.2187L34.7322 24.339C35.3413 24.2953 35.8818 24.288 36.4898 24.282L36.4957 22.321C37.054 22.3914 37.5472 22.3817 38.1067 22.3817C38.1008 21.713 38.0854 21.0735 38.1351 20.4049C38.7383 20.4025 39.5118 20.4911 40.1683 20.5032L40.1813 22.1984C40.7892 22.2433 41.2221 22.2688 41.823 22.3938L41.8159 24.3208C42.4735 24.3159 42.9313 24.3341 43.5771 24.4409C43.6137 25.0404 43.5972 25.7199 43.5948 26.3254C44.1767 26.3327 45.0674 26.266 45.6387 26.1823L45.6316 12.8195C47.2023 12.8559 48.876 12.8304 50.4514 12.8304L50.4455 28.9211C50.4443 29.6103 50.5248 32.8734 50.4041 33.2787L50.2575 33.3345L50.2586 33.3357Z" fill="#ECECEC"/>
<path d="M57.7532 12.7783C61.3431 12.7039 65.1037 12.7772 68.7147 12.7634L68.7299 14.5626C69.3551 14.5065 69.9324 14.4504 70.5611 14.4366L70.5412 16.379C71.0846 16.3733 71.6654 16.3916 72.2123 16.3985L72.2158 19.6555C70.5097 19.6051 68.675 19.62 66.9968 19.5273C66.9805 19.1058 66.9887 18.6443 66.9887 18.2183L65.8937 18.224L65.8797 17.2379C64.184 17.1703 62.4241 17.1864 60.7214 17.1795L60.7051 18.295C60.2131 18.2915 59.8555 18.3007 59.3729 18.216L59.3694 28.0674L60.6677 28.0674C60.6583 28.4831 60.6677 28.9103 60.6724 29.326L65.889 29.3306L65.889 28.0468L66.9548 28.0685C66.9676 27.7456 66.9723 27.4146 66.9793 27.0916L72.2123 27.0813L72.2158 30.1346C71.6058 30.1861 71.1804 30.2056 70.5739 30.1861L70.5658 32.0254L68.7135 32.0254L68.7088 33.7444C65.085 33.6951 61.3642 33.7387 57.7321 33.7387C57.717 33.1821 57.7251 32.5751 57.7216 32.0162L55.9827 32.0196L56.0096 30.2491L54.307 30.2537C54.307 25.8147 54.4484 20.6668 54.2158 16.2736C54.7756 16.3263 55.3926 16.3549 55.9594 16.3904L55.9594 14.6073L57.7579 14.613C57.7473 14.0003 57.7438 13.3876 57.7508 12.7749L57.7532 12.7783Z" fill="#ECECEC"/>
<path d="M99.256 12.6856C98.5561 12.6737 97.7812 12.7358 97.0706 12.7549C95.9583 12.7741 94.8447 12.7753 93.7324 12.7573C93.7443 13.319 93.7372 13.8795 93.7133 14.4411L92.2946 14.4495L92.291 15.911C91.6126 15.9947 91.3122 15.9899 90.6302 15.9433L90.6231 17.5601L88.9563 17.5577L88.9504 19.5487C88.4175 19.5236 87.8368 19.5259 87.3003 19.5176L87.3051 17.5577L85.5704 17.5601C85.5716 17.0451 85.6026 16.5205 85.6253 16.0054C84.9481 16.003 84.4545 15.9827 83.7797 15.9265L83.7833 14.4519L82.2978 14.4363L82.2918 12.7215C80.3306 12.7478 78.8343 12.8027 76.8624 12.6964C76.7539 17.4478 76.8874 22.2554 76.8386 27.0104C76.8195 28.9463 76.8028 30.9468 76.8457 32.8779C78.4218 32.8732 79.9992 32.8767 81.5765 32.8899L81.5765 25.1163L81.5812 19.6897C82.3037 19.6634 82.8796 19.6705 83.6009 19.6944L83.6056 21.5455C84.2196 21.5886 84.7645 21.5957 85.3773 21.6029L85.3832 23.5341C85.946 23.4647 86.4431 23.4743 87.0071 23.4743C87.0011 24.1328 86.9856 24.7637 87.0357 25.421C87.6437 25.4234 88.4234 25.3373 89.0851 25.3242L89.0982 23.6536C89.711 23.6093 90.1474 23.5842 90.753 23.4612L90.7459 21.5635C91.4088 21.5682 91.8701 21.5503 92.5211 21.4452C92.5581 20.8548 92.5414 20.1856 92.539 19.5881C93.1256 19.5809 94.0233 19.6466 94.5991 19.7291L94.592 32.8887C96.1753 32.8528 97.8623 32.8791 99.4503 32.8791L99.4444 17.0331C99.4432 16.3544 99.5242 13.1409 99.4026 12.7418L99.2548 12.6868L99.256 12.6856Z" fill="#ECECEC"/>
<path d="M127.52 14.054L127.512 31.1159L126.101 31.1195C126.093 32.2187 126.095 33.3179 126.111 34.4172L124.475 34.3826C124.55 35.3686 124.55 36.4356 124.567 37.4311L122.858 37.4371L122.837 40.4367L121.075 40.4236L121.077 42.082C120.602 42.0748 120.125 42.0856 119.649 42.1142C119.634 42.5493 119.637 43.0143 119.632 43.4519L118.118 43.4578L118.127 45.0876C117.144 45.0471 116.064 45.0924 115.061 45.0769C115.017 44.5904 115.02 43.9359 115.008 43.4364C114.464 43.4745 114.089 43.5079 113.54 43.4697L113.532 40.5166L115.045 40.513L115.03 38.9715L116.567 38.9619L116.561 37.4776L118.131 37.4812C118.112 36.9065 118.115 36.3307 118.136 35.7572C118.67 35.737 119.248 35.7537 119.785 35.7572C119.794 34.7784 119.785 33.7543 119.84 32.7814L121.236 32.7647C121.233 31.7096 121.21 30.5901 121.26 29.5422C121.307 29.1034 121.298 28.5836 121.302 28.1365L122.613 28.1413C122.613 24.4335 122.713 20.9808 122.606 17.2217L121.244 17.2134C121.218 15.6241 121.234 13.9884 121.23 12.3968L119.755 12.392C119.781 11.412 119.791 10.4308 119.789 9.45077C119.254 9.45435 118.663 9.42097 118.124 9.40308L118.11 7.62786C117.581 7.66482 117.048 7.66959 116.517 7.68032C116.536 7.18435 116.553 6.68839 116.566 6.19242L114.967 6.19004C114.996 5.69169 115.038 5.19572 115.095 4.69975L113.606 4.63418C113.485 3.74359 113.525 2.43691 113.532 1.52486L114.96 1.5332L114.963 0.0143061L118.128 -4.10524e-07C118.116 0.494773 118.125 1.00743 118.127 1.5034C118.592 1.53082 119.162 1.51651 119.635 1.5177L119.635 3.02825L121.07 3.03064L121.07 4.69141L122.796 4.68902C122.792 5.67499 122.833 6.73727 122.849 7.7292L124.526 7.7292C124.528 8.77359 124.522 9.81798 124.507 10.8624C125.086 10.8779 125.519 10.8743 126.097 10.8421C126.087 11.9127 126.087 12.9833 126.095 14.0528L127.516 14.0504L127.52 14.054Z" fill="#ECECEC"/>
<path d="M-6.14318e-07 14.054L0.00716878 31.1159L1.41849 31.1195C1.42686 32.2187 1.42447 33.3179 1.40893 34.4172L3.04492 34.3826C2.96963 35.3686 2.96963 36.4356 2.9529 37.4311L4.66178 37.4371L4.6821 40.4367L6.44476 40.4236L6.44237 42.082C6.91799 42.0748 7.3948 42.0856 7.87042 42.1142C7.88596 42.5493 7.88237 43.0143 7.88715 43.4519L9.40125 43.4578L9.39288 45.0876C10.3752 45.0471 11.4555 45.0924 12.4581 45.0769C12.5023 44.5904 12.4999 43.9359 12.5119 43.4364C13.0556 43.4745 13.4309 43.5079 13.9794 43.4697L13.9877 40.5166L12.4748 40.513L12.4892 38.9715L10.9524 38.9619L10.9584 37.4776L9.3881 37.4812C9.40722 36.9065 9.40483 36.3307 9.38332 35.7572C8.84914 35.737 8.27195 35.7537 7.73419 35.7572C7.72582 34.7784 7.73419 33.7543 7.67922 32.7814L6.28343 32.7647C6.28702 31.7096 6.30972 30.5901 6.25953 29.5422C6.21292 29.1034 6.22129 28.5836 6.2177 28.1365L4.90676 28.1413C4.90676 24.4335 4.80638 20.9808 4.91393 17.2217L6.27507 17.2134C6.30136 15.6241 6.28582 13.9884 6.28941 12.3968L7.76407 12.392C7.73897 11.412 7.72821 10.4308 7.73061 9.45077C8.26598 9.45435 8.85632 9.42097 9.39527 9.40308L9.40961 7.62786C9.93901 7.66482 10.472 7.66959 11.0026 7.68032C10.9835 7.18435 10.9667 6.68839 10.9536 6.19242L12.5525 6.19004C12.5238 5.69169 12.482 5.19572 12.4247 4.69975L13.9137 4.63418C14.0344 3.74359 13.9949 2.43691 13.9877 1.52486L12.5597 1.5332L12.5561 0.0143072L9.39169 4.10524e-07C9.40364 0.494774 9.39408 1.00743 9.39288 1.5034C8.92802 1.53082 8.35799 1.51651 7.88476 1.5177L7.88476 3.02825L6.44954 3.03064L6.44954 4.69141L4.72393 4.68902C4.72751 5.67499 4.68688 6.73727 4.67015 7.7292L2.99353 7.7292C2.99114 8.77359 2.99712 9.81798 3.01265 10.8624C2.43307 10.8779 2.00047 10.8743 1.42208 10.8421C1.43283 11.9127 1.43283 12.9833 1.42447 14.0528L0.00358446 14.0504L-6.14318e-07 14.054Z" fill="#ECECEC"/>
<path d="M116.673 29.093C116.691 29.273 116.71 29.3386 116.66 29.5162C116.388 29.7404 115.609 29.6235 115.225 29.6188L115.217 32.777L113.43 32.777C113.419 33.2896 113.426 33.8261 113.425 34.3388C112.95 34.3304 112.506 34.3412 112.031 34.3531C112.052 34.8693 112.094 35.3605 112.11 35.8863L110.425 35.8839L110.448 37.5363L107.371 37.5339C107.338 37.001 107.329 36.4311 107.313 35.8946C106.734 35.8863 106.231 35.8791 105.653 35.8326C105.646 35.2783 105.653 34.7096 105.653 34.1552C106.175 34.1242 106.696 34.098 107.218 34.0765C107.224 33.5269 107.235 32.9785 107.251 32.4288C107.767 32.4145 108.378 32.405 108.884 32.4718C108.861 31.8625 108.852 31.2521 108.857 30.6405C109.356 30.6465 109.856 30.6465 110.355 30.6429L110.347 27.6707C110.895 27.679 111.444 27.6814 111.994 27.679C112.006 27.2641 112.012 26.8099 112.001 26.395C111.921 23.5026 111.975 20.6139 111.97 17.7215C111.504 17.6858 110.962 17.6846 110.49 17.6727L110.378 17.6369C110.304 17.4306 110.358 14.9425 110.361 14.5252L108.942 14.5228C108.979 13.9792 108.909 13.2853 108.866 12.7333C108.309 12.7404 107.753 12.744 107.196 12.744C107.211 12.1849 107.199 11.5804 107.199 11.0189L105.648 11.0248L105.653 9.41293L107.206 9.40458L107.202 7.74262L110.402 7.74023C110.411 8.26481 110.402 8.82039 110.401 9.34735L112.092 9.35093C112.107 9.87789 112.101 10.4287 112.105 10.9581L113.545 10.9437L113.559 12.5628C114.112 12.5831 114.666 12.5878 115.219 12.5771C115.217 13.6418 115.224 14.7076 115.241 15.7723L116.664 15.7663L116.678 29.0942L116.673 29.093Z" fill="#ECECEC"/>
<path d="M10.8452 29.093C10.8273 29.273 10.8081 29.3386 10.8583 29.5162C11.1308 29.7404 11.91 29.6235 12.2936 29.6188L12.3019 32.777L14.0885 32.777C14.0992 33.2896 14.0921 33.8261 14.0933 34.3388C14.5689 34.3304 15.0122 34.3412 15.4879 34.3531C15.4663 34.8693 15.4245 35.3605 15.409 35.8863L17.094 35.8839L17.0701 37.5363L20.1473 37.5339C20.1807 37.001 20.1891 36.4311 20.2058 35.8946C20.7842 35.8863 21.2873 35.8791 21.8657 35.8326C21.8729 35.2783 21.8657 34.7096 21.8657 34.1552C21.3435 34.1242 20.8224 34.098 20.3002 34.0765C20.2942 33.5269 20.2835 32.9785 20.2679 32.4288C19.7517 32.4145 19.141 32.405 18.6344 32.4718C18.6571 31.8625 18.6666 31.2521 18.6618 30.6405C18.1623 30.6465 17.6628 30.6465 17.1633 30.6429L17.1716 27.6707C16.6231 27.679 16.0746 27.6814 15.5249 27.679C15.513 27.2641 15.507 26.8099 15.5177 26.395C15.5978 23.5026 15.544 20.6139 15.5488 17.7215C16.0149 17.6858 16.5562 17.6846 17.0282 17.6727L17.1406 17.6369C17.2147 17.4306 17.1609 14.9425 17.1573 14.5252L18.577 14.5228C18.5399 13.9792 18.6093 13.2853 18.6523 12.7333C19.2092 12.7404 19.766 12.744 20.3229 12.744C20.3074 12.1849 20.3193 11.5804 20.3193 11.0189L21.8705 11.0248L21.8657 9.41293L20.3122 9.40458L20.3169 7.74262L17.1167 7.74023C17.1071 8.26481 17.1167 8.82039 17.1179 9.34735L15.4269 9.35093C15.4114 9.8779 15.4174 10.4287 15.4138 10.9581L13.9738 10.9437L13.9594 12.5628C13.4061 12.5831 12.8528 12.5878 12.2995 12.5771C12.3019 13.6418 12.2948 14.7076 12.278 15.7723L10.8548 15.7663L10.8404 29.0942L10.8452 29.093Z" fill="#ECECEC"/>
</svg>
