<svg width="47" height="137" viewBox="0 0 47 137" fill="none" xmlns="http://www.w3.org/2000/svg">
<g clip-path="url(#clip0_9_5878)">
<path d="M12.1878 85.1168C12.911 85.1042 13.7118 85.1699 14.4462 85.1901C15.5957 85.2104 16.7464 85.2116 17.896 85.1927C17.8836 85.7868 17.891 86.3796 17.9157 86.9737L19.3818 86.9825L19.3855 88.5285C20.0866 88.6169 20.3971 88.6119 21.1018 88.5626L21.1092 90.2728L22.8316 90.2703L22.8378 92.3762C23.3885 92.3496 23.9885 92.3522 24.543 92.3433L24.5381 90.2703L26.3307 90.2728C26.3295 89.728 26.2975 89.1731 26.274 88.6283C26.9739 88.6258 27.4839 88.6043 28.1813 88.5449L28.1776 86.9838L29.7128 86.9674L29.7189 85.1535C31.7457 85.1813 33.2919 85.2394 35.3298 85.1269C35.4419 90.1527 35.3039 95.238 35.3544 100.268C35.3741 102.316 35.3914 104.433 35.347 106.474C33.7182 106.469 32.0882 106.473 30.4582 106.487V98.2653L30.4532 92.5253C29.7066 92.4975 29.1115 92.5051 28.3661 92.5304L28.3612 94.4884C27.7267 94.5339 27.1636 94.5415 26.5303 94.5478L26.5242 96.5905C25.9426 96.5172 25.4288 96.5273 24.8461 96.5273C24.8522 97.2238 24.8682 97.8899 24.8165 98.5864C24.1881 98.5889 23.3824 98.4966 22.6986 98.484L22.685 96.7181C22.0517 96.6714 21.6008 96.6448 20.9749 96.5146L20.9823 94.5073C20.2973 94.5124 19.8205 94.4934 19.1477 94.3822C19.1095 93.7578 19.1268 93.0499 19.1293 92.4192C18.5231 92.4116 17.5953 92.4811 17.0002 92.5683L17.0076 106.488C15.3714 106.45 13.6281 106.477 11.9869 106.477L11.9931 89.7154C11.9943 88.9974 11.9105 85.5984 12.0362 85.1762L12.189 85.1181L12.1878 85.1168Z" fill="#ECECEC"/>
<path d="M16.5688 54.6284C21.2374 54.531 26.1278 54.6269 30.8237 54.6089L30.8435 56.9632C31.6566 56.8898 32.4073 56.8163 33.2249 56.7983L33.1992 59.34C33.9058 59.3325 34.661 59.3564 35.3722 59.3654L35.3769 63.6274C33.1581 63.5615 30.7721 63.581 28.5898 63.4596C28.5685 62.9081 28.5791 62.3042 28.5791 61.7467L27.1553 61.7542L27.1369 60.4639C24.9318 60.3755 22.6431 60.3965 20.4289 60.3875L20.4076 61.8471C19.7678 61.8426 19.3028 61.8546 18.6752 61.7437L18.6707 74.6346H20.3591C20.3469 75.1786 20.3591 75.7375 20.3652 76.2815L27.1491 76.2875V74.6076L28.5352 74.6361C28.5519 74.2135 28.5579 73.7804 28.567 73.3578L35.3722 73.3443L35.3769 77.3395C34.5836 77.407 34.0303 77.4324 33.2416 77.407L33.231 79.8137H30.8223L30.8162 82.0631C26.1036 81.9987 21.2648 82.0556 16.5415 82.0556C16.5217 81.3273 16.5324 80.533 16.5278 79.8017L14.2666 79.8062L14.3014 77.4894L12.0872 77.4954C12.0872 71.6868 12.2711 64.9507 11.9688 59.2021C12.6967 59.271 13.499 59.3085 14.2361 59.3549V57.0216L16.5749 57.0291C16.5612 56.2274 16.5567 55.4256 16.5658 54.6239L16.5688 54.6284Z" fill="#ECECEC"/>
<path d="M12.1914 51.4191C12.9204 51.4315 13.7276 51.3668 14.4678 51.3469C15.6265 51.3269 16.7864 51.3257 17.9451 51.3444C17.9327 50.7593 17.9402 50.1755 17.965 49.5904L19.4429 49.5817L19.4466 48.0593C20.1532 47.9722 20.4662 47.9771 21.1766 48.0257L21.184 46.3415L22.9202 46.3439L22.9264 44.2701C23.4815 44.2962 24.0863 44.2937 24.6452 44.3024L24.6402 46.3439L26.4472 46.3415C26.4459 46.878 26.4137 47.4244 26.3901 47.961C27.0955 47.9634 27.6096 47.9846 28.3125 48.0431L28.3088 49.5792L29.8562 49.5954L29.8624 51.3817C31.9053 51.3543 33.4639 51.2971 35.518 51.4078C35.6311 46.4585 35.492 41.4506 35.5429 36.4974C35.5628 34.4808 35.5801 32.397 35.5354 30.3854C33.8936 30.3904 32.2506 30.3866 30.6076 30.373V38.4705L30.6026 44.1232C29.85 44.1506 29.2502 44.1431 28.4988 44.1182L28.4938 42.19C27.8543 42.1452 27.2867 42.1377 26.6484 42.1302L26.6422 40.1186C26.056 40.1908 25.5381 40.1809 24.9507 40.1809C24.9569 39.495 24.9731 38.8377 24.9209 38.1531C24.2875 38.1506 23.4753 38.2402 22.7861 38.2539L22.7724 39.9941C22.1341 40.0402 21.6795 40.0663 21.0486 40.1945L21.0561 42.1713C20.3656 42.1663 19.885 42.185 19.2069 42.2946C19.1684 42.9095 19.1858 43.6066 19.1883 44.229C18.5773 44.2365 17.6421 44.168 17.0423 44.0821L17.0497 30.3742C15.4005 30.4115 13.6432 30.3842 11.989 30.3842L11.9952 46.8904C11.9964 47.5975 11.912 50.9448 12.0386 51.3605L12.1926 51.4178L12.1914 51.4191Z" fill="#ECECEC"/>
<path d="M14.6395 0L32.4124 0.0074689L32.4161 1.4776C33.5611 1.48631 34.7062 1.48382 35.8512 1.46764L35.8152 3.17179C36.8423 3.09337 37.9538 3.09337 38.9907 3.07594L38.997 4.85603L42.1216 4.87719L42.1079 6.71329L43.8354 6.7108C43.828 7.20624 43.8391 7.70292 43.8689 8.19836C44.3222 8.21454 44.8066 8.21081 45.2623 8.21578L45.2686 9.79297L46.9662 9.78425C46.924 10.8075 46.9712 11.9328 46.9551 12.9772C46.4484 13.0233 45.7666 13.0208 45.2462 13.0332C45.2859 13.5996 45.3207 13.9905 45.281 14.5619L42.2048 14.5706L42.2011 12.9946L40.5953 13.0096L40.5853 11.4087L39.0392 11.415L39.0429 9.77927C38.4443 9.79919 37.8445 9.7967 37.2471 9.77429C37.226 9.21786 37.2434 8.61662 37.2471 8.05645C36.2275 8.04773 35.1607 8.05645 34.1473 7.99919L34.1299 6.54524C33.0309 6.54898 31.8647 6.57263 30.7731 6.52035C30.3161 6.4718 29.7746 6.48051 29.3089 6.47678L29.3138 5.11121C25.4515 5.11121 21.855 5.00665 17.9393 5.11868L17.9306 6.53653C16.2751 6.56391 14.5712 6.54773 12.9133 6.55147L12.9083 8.08757C11.8875 8.06143 10.8654 8.05022 9.84455 8.05271C9.84828 8.61039 9.81351 9.22533 9.79488 9.78674L7.94569 9.80168C7.98419 10.3531 7.98915 10.9083 8.00033 11.461C7.4837 11.4411 6.96707 11.4237 6.45044 11.41L6.44795 13.0755C5.92884 13.0457 5.41221 13.0021 4.89558 12.9424L4.82727 14.4934C3.89957 14.6191 2.53845 14.578 1.58839 14.5706L1.59709 13.083L0.0149028 13.0793L0 9.78301C0.515389 9.79546 1.04941 9.7855 1.56604 9.78425C1.5946 9.30002 1.5797 8.70624 1.58094 8.2133H3.15443L3.15691 6.71827H4.88688L4.8844 4.92076C5.91145 4.92449 7.01799 4.88217 8.05125 4.86474V3.11826C9.13915 3.11577 10.2271 3.122 11.315 3.13818C11.3311 2.53445 11.3274 2.08382 11.2939 1.48133C12.4091 1.49253 13.5243 1.49253 14.6383 1.48382L14.6358 0.00373445L14.6395 0Z" fill="#ECECEC"/>
<path d="M14.6395 137.001L32.4124 136.994L32.4161 135.523C33.5611 135.515 34.7062 135.517 35.8512 135.533L35.8152 133.829C36.8423 133.908 37.9538 133.908 38.9907 133.925L38.997 132.145L42.1216 132.124L42.1079 130.288L43.8354 130.29C43.828 129.795 43.8391 129.298 43.8689 128.803C44.3222 128.786 44.8066 128.79 45.2623 128.785L45.2686 127.208L46.9662 127.217C46.924 126.194 46.9712 125.068 46.9551 124.024C46.4484 123.978 45.7666 123.98 45.2462 123.968C45.2859 123.401 45.3207 123.011 45.281 122.439L42.2048 122.43L42.2011 124.006L40.5953 123.991L40.5853 125.592L39.0392 125.586L39.0429 127.222C38.4443 127.202 37.8445 127.204 37.2471 127.227C37.226 127.783 37.2434 128.384 37.2471 128.945C36.2275 128.953 35.1607 128.945 34.1473 129.002L34.1299 130.456C33.0309 130.452 31.8647 130.428 30.7731 130.481C30.3161 130.529 29.7746 130.52 29.3089 130.524L29.3138 131.89C25.4515 131.89 21.855 131.994 17.9393 131.882L17.9306 130.464C16.2751 130.437 14.5712 130.453 12.9133 130.45L12.9083 128.913C11.8875 128.94 10.8654 128.951 9.84455 128.948C9.84828 128.391 9.81351 127.776 9.79488 127.214L7.94569 127.199C7.98419 126.648 7.98915 126.093 8.00033 125.54C7.4837 125.56 6.96707 125.577 6.45044 125.591L6.44795 123.925C5.92884 123.955 5.41221 123.999 4.89558 124.059L4.82727 122.508C3.89957 122.382 2.53845 122.423 1.58839 122.43L1.59709 123.918L0.0149028 123.922L0 127.218C0.515389 127.206 1.04941 127.216 1.56604 127.217C1.5946 127.701 1.5797 128.295 1.58094 128.788H3.15443L3.15691 130.283H4.88688L4.8844 132.08C5.91145 132.077 7.01799 132.119 8.05125 132.136V133.883C9.13915 133.885 10.2271 133.879 11.315 133.863C11.3311 134.467 11.3274 134.917 11.2939 135.52C12.4091 135.508 13.5243 135.508 14.6383 135.517L14.6358 136.997L14.6395 137.001Z" fill="#ECECEC"/>
<path d="M30.305 11.2971C30.4925 11.2785 30.5608 11.2586 30.7458 11.3108C30.9793 11.5947 30.8576 12.4063 30.8526 12.8059L34.1424 12.8146V14.6756C34.6765 14.6868 35.2353 14.6793 35.7693 14.6806C35.7606 15.176 35.7718 15.6378 35.7842 16.1333C36.322 16.1109 36.8336 16.0673 37.3813 16.0511L37.3788 17.8063L39.1001 17.7814L39.0976 20.9868C38.5425 21.0217 37.9489 21.0304 37.39 21.0478C37.3813 21.6503 37.3739 22.1743 37.3254 22.7768C36.7479 22.7843 36.1556 22.7768 35.5781 22.7768C35.5458 22.2329 35.5185 21.6901 35.4961 21.1461C34.9236 21.1399 34.3523 21.1287 33.7798 21.1125C33.7649 20.5748 33.755 19.9387 33.8245 19.4109C33.1899 19.4345 32.554 19.4445 31.9169 19.4395C31.9232 18.9192 31.9232 18.3988 31.9194 17.8785L28.8234 17.8872C28.8321 17.3158 28.8345 16.7445 28.8321 16.1718C28.3999 16.1594 27.9267 16.1532 27.4945 16.1644C24.4817 16.2478 21.4726 16.1918 18.4597 16.1967C18.4224 16.6822 18.4212 17.2461 18.4088 17.7378L18.3715 17.8548C18.1567 17.932 15.5648 17.876 15.1302 17.8723L15.1277 19.3511C14.5614 19.3125 13.8386 19.3847 13.2636 19.4295C13.271 20.0096 13.2748 20.5897 13.2748 21.1698C12.6923 21.1536 12.0627 21.166 11.4777 21.166L11.4839 22.7818L9.80489 22.7768L9.79619 21.1586L8.06498 21.1636L8.0625 17.8299C8.60894 17.82 9.18766 17.8299 9.73658 17.8312L9.74031 16.0698C10.2892 16.0536 10.863 16.0598 11.4144 16.0561L11.3995 14.5561L13.086 14.5411C13.1071 13.9648 13.1121 13.3884 13.1009 12.8121C14.2099 12.8146 15.3202 12.8071 16.4292 12.7897L16.423 11.3071L30.3062 11.2922L30.305 11.2971Z" fill="#ECECEC"/>
<path d="M30.305 125.702C30.4925 125.721 30.5608 125.741 30.7458 125.688C30.9793 125.405 30.8576 124.593 30.8526 124.193L34.1424 124.185V122.324C34.6765 122.312 35.2353 122.32 35.7693 122.319C35.7606 121.823 35.7718 121.361 35.7842 120.866C36.322 120.888 36.8336 120.932 37.3813 120.948L37.3788 119.193L39.1001 119.218L39.0976 116.012C38.5425 115.978 37.9489 115.969 37.39 115.951C37.3813 115.349 37.3739 114.825 37.3254 114.222C36.7479 114.215 36.1556 114.222 35.5781 114.222C35.5458 114.766 35.5185 115.309 35.4961 115.853C34.9236 115.859 34.3523 115.871 33.7798 115.887C33.7649 116.424 33.755 117.061 33.8245 117.588C33.1899 117.565 32.554 117.555 31.9169 117.56C31.9232 118.08 31.9232 118.6 31.9194 119.121L28.8234 119.112C28.8321 119.683 28.8345 120.255 28.8321 120.827C28.3999 120.84 27.9267 120.846 27.4945 120.835C24.4817 120.751 21.4726 120.807 18.4597 120.803C18.4224 120.317 18.4212 119.753 18.4088 119.261L18.3715 119.144C18.1567 119.067 15.5648 119.123 15.1302 119.127L15.1277 117.648C14.5614 117.687 13.8386 117.615 13.2636 117.57C13.271 116.99 13.2748 116.41 13.2748 115.829C12.6923 115.846 12.0627 115.833 11.4777 115.833L11.4839 114.217L9.80489 114.222L9.79619 115.841L8.06498 115.836L8.0625 119.169C8.60894 119.179 9.18766 119.169 9.73658 119.168L9.74031 120.929C10.2892 120.946 10.863 120.939 11.4144 120.943L11.3995 122.443L13.086 122.458C13.1071 123.034 13.1121 123.611 13.1009 124.187C14.2099 124.185 15.3202 124.192 16.4292 124.21L16.423 125.692L30.3062 125.707L30.305 125.702Z" fill="#ECECEC"/>
</g>
<defs>
<clipPath id="clip0_9_5878">
<rect width="47" height="137" fill="white"/>
</clipPath>
</defs>
</svg>
